<svg xmlns="http://www.w3.org/2000/svg" width="50" height="50"><path d="m 11.157112,32.989213 13.727041,8.047952 13.835629,-7.998874 v -8.264744 l -0.597819,0.345862 v 7.469068 l -13.23781,7.633691 -13.136564,-7.633691 z" fill="#fff"/><path d="m 38.121963,32.556017 0.597819,0.430878 v 0.0514 l -0.03787,0.0286 -0.612503,-0.448267 0.05256,-0.03014 z" fill="#fff"/><path d="m 15.521926,19.718942 9.362227,5.553497 0.112453,-0.239205 -9.327061,-5.461525 z" fill="#fff"/><path d="m 25.047229,25.110135 h -0.121341 l 0.04058,-0.0769 h 0.0684 z" fill="#fff"/><path d="m 44.852162,13.555261 0.05874,0.163076 -19.914295,11.554102 v -0.239205 z" fill="#fff"/><path d="M 24.884153,41.037165 24.834302,48 h 0.162304 l 0.133321,-6.850381 13.781142,-7.942455 0.0514,-8.504721 h -0.242683 v 8.335848 z" fill="#fff"/><path d="m 38.829144,33.126399 v -8.416227 l -4.632229,2.678786 v 2.972865 l -9.200309,5.411674 V 25.272439 L 44.910901,13.718337 V 36.509275 L 24.996606,48 v -6.908347 z" fill="#fff"/><path d="m 24.773632,48 h 0.110521 V 41.037165 L 24.492305,40.807621 24.773632,48" fill="#fff"/><path d="m 11.125424,17.071844 0.08463,0.07149 0.03401,15.786753 -0.08695,0.05913 -0.05256,-0.03323 0.02087,-15.884136" fill="#fff"/><path d="M 11.157112,17.090393 24.996606,9.0992473 v 0.7871736 l -13.235105,7.6607411 -0.01391,15.041315 -0.590477,0.400736 z" fill="#fff"/><path d="m 24.884153,25.272439 v -0.3049 l 0.112453,0.02473 v 10.781226 l -0.112453,0.07613 z" fill="#fff"/><path d="m 15.521926,19.718942 v 10.71901 l 9.362227,5.411673 V 25.272439 Z" fill="#fff"/><path d="M 24.773632,40.972244 11.157112,32.989213 V 17.16768 L 5,13.555261 V 36.547918 L 24.773632,48 v -0.113226 z" fill="#fff"/><path d="m 11.051615,17.090393 h 0.105498 v 15.89882 h -0.105498 z" fill="#fff"/><path d="m 5,13.555261 6.104557,3.588074 0.05256,-0.05294 -6.0775063,-3.614739 z" fill="#fff"/><path d="M 24.773632,41.10286 11.051615,33.109009 v -0.119796 h 0.105497 l 13.61652,7.983031 z" fill="#fff"/><path d="M 33.845257,15.045364 24.996606,9.8864209 V 9.0992473 l 8.848651,5.1728557 z" fill="#fff"/><path d="m 39.974546,11.451107 v -0.730753 l -6.129289,3.551749 v 0.773261 z" fill="#fff"/><path d="M 5,13.555261" fill="#fff"/><path d="M 5.0796062,13.475654" fill="#fff"/><path d="M 24.93323,2 39.974546,10.720354 33.845257,14.272103 24.996606,9.0992473 11.157112,17.090393 5.0796062,13.475654 Z" fill="#fff"/><path d="m 15.669545,19.571709 9.207265,-5.201065 8.77175,4.951427 10.686935,-6.142814 0.516667,0.376004 -19.855556,11.477973 z" fill="#fff"/></svg>